<svg xmlns="http://www.w3.org/2000/svg" width="24" height="24"><path d="M16 9v4.501a6.522 6.522 0 0 0-2 1.319V9a1 1 0 1 1 2 0zm-4 0v10a1 1 0 1 1-2 0V9a1 1 0 1 1 2 0zm1.82 15H2V6h2v16h8.502a6.507 6.507 0 0 0 1.318 2zM7 8a1 1 0 0 1 1 1v10a1 1 0 1 1-2 0V9a1 1 0 0 1 1-1zm14-4H1V2h5.711c.9 0 1.631-1.099 1.631-2h5.316c0 .901.73 2 1.631 2H21v2zm-1 2v7.182A6.45 6.45 0 0 0 18.5 13l-.5.025V6h2zm3 13.5c0 2.485-2.017 4.5-4.5 4.5S14 21.985 14 19.5s2.017-4.5 4.5-4.5 4.5 2.015 4.5 4.5zm-3.086-2.122L18.5 18.792l-1.414-1.414-.707.708 1.414 1.414-1.414 1.414.707.708 1.414-1.414 1.414 1.414.708-.708-1.414-1.414 1.414-1.414-.708-.708z"/></svg>